<svg width="63" height="63" viewBox="0 0 63 63" fill="none" xmlns="http://www.w3.org/2000/svg">
<path d="M42.6399 37.8H20.3736C9.90966 37.8 1.27082 45.6277 0 55.7401C3.01481 59.9311 7.92232 62.6485 13.4652 62.6485H49.5348C55.0777 62.6485 59.9987 59.9176 63 55.7401C61.7427 45.6277 53.1039 37.8 42.6399 37.8Z" fill="#80B4FB"/>
<path d="M56.0782 51.0219C53.5231 54.2395 51.752 57.9843 50.8868 62.0401C50.8733 62.1077 50.8192 62.324 50.7651 62.5944C51.5357 62.5403 52.2793 62.4322 53.0229 62.27C53.834 58.6197 55.4428 55.2399 57.7411 52.3468C58.0791 51.9277 58.052 51.3328 57.6735 50.9408C57.2409 50.4811 56.4838 50.5217 56.0782 51.0219Z" fill="#9DC6FB"/>
<path d="M34.7312 45.0869H28.2825C24.8486 45.0869 22.0771 42.3019 22.0771 38.8816V26.2275H40.9366V38.8816C40.9366 42.3019 38.1516 45.0869 34.7312 45.0869Z" fill="#FFB983"/>
<path d="M35.8264 0H20.2792C18.1161 0 16.3721 1.75751 16.3721 3.90708V18.2376H46.6418V10.8154C46.6418 4.83991 41.7884 0 35.8264 0Z" fill="#2B4D66"/>
<path d="M19.9141 26.5654H18.6568C16.0206 26.5654 13.8845 24.4294 13.8845 21.7931V20.4953C13.8845 18.8865 15.1959 17.5751 16.8047 17.5751H16.9804C18.5892 17.5751 19.9006 18.8865 19.9006 20.4953L19.9141 26.5654Z" fill="#FFB983"/>
<path d="M43.0996 26.5654H44.3434C46.9797 26.5654 49.1157 24.4294 49.1157 21.7931V20.4953C49.1157 18.8865 47.8043 17.5751 46.1955 17.5751H46.0198C44.411 17.5751 43.0996 18.8865 43.0996 20.4953V26.5654Z" fill="#FFB983"/>
<path d="M41.2609 32.5545L37.9216 36.3399C34.5147 40.2064 28.4851 40.2064 25.0783 36.3399L21.739 32.5545C19.5353 30.0534 18.3186 26.8358 18.3186 23.5101V15.1822C18.3186 12.0998 20.8197 9.61224 23.8886 9.61224H39.1113C42.1937 9.61224 44.6813 12.1133 44.6813 15.1822V23.5101C44.6948 26.8358 43.478 30.0534 41.2609 32.5545Z" fill="#FCD0A3"/>
<path d="M25.1594 21.8066C26.0105 21.8066 26.7006 21.1166 26.7006 20.2654C26.7006 19.4143 26.0105 18.7242 25.1594 18.7242C24.3082 18.7242 23.6182 19.4143 23.6182 20.2654C23.6182 21.1166 24.3082 21.8066 25.1594 21.8066Z" fill="#61A2F9"/>
<path d="M37.8542 21.8066C38.7054 21.8066 39.3954 21.1166 39.3954 20.2654C39.3954 19.4143 38.7054 18.7242 37.8542 18.7242C37.003 18.7242 36.313 19.4143 36.313 20.2654C36.313 21.1166 37.003 21.8066 37.8542 21.8066Z" fill="#61A2F9"/>
<path d="M26.9846 26.8494C26.5791 26.8494 26.3087 27.2685 26.4709 27.6335C27.3497 29.5397 29.2694 30.8511 31.5001 30.8511C33.7308 30.8511 35.6505 29.5262 36.5293 27.6335C36.705 27.2685 36.4211 26.8494 36.0155 26.8494H26.9846Z" fill="#F4FBFF"/>
<path d="M11.9509 62.0942C10.8423 56.8487 8.2331 52.117 4.39362 48.3856L3.36615 47.3852C3.32559 47.3582 3.24448 47.277 3.13632 47.1824C2.74426 47.7908 2.36572 48.4397 2.04126 49.0886L2.9065 49.9268C6.35392 53.2931 8.73332 57.5382 9.78783 62.2429C10.5179 62.4051 11.275 62.5268 12.0456 62.5944C12.005 62.324 11.9644 62.1348 11.9509 62.0942Z" fill="#9DC6FB"/>
</svg>
